<svg xmlns="http://www.w3.org/2000/svg" width="87" height="14" viewBox="0 0 87 14">
    <g fill="none" fill-rule="evenodd">
        <path fill="#FFF" d="M-144-15h375v7461h-375z"/>
        <path fill="#DEDEDE" d="M-129 6h345v1h-345z"/>
        <path fill="#ED1C23" d="M-144-15h375v44h-375z"/>
        <g fill="#FFF">
            <path d="M73.959 5.712c-1.646-.7-2.328-.99-2.328-1.843 0-.499.406-1.032 1.54-1.032.822 0 1.857.439 2.551.85l.049.028.024-.051 1.187-2.554.02-.042-.04-.024A7.411 7.411 0 0 0 73.166 0c-3.276 0-4.771 2.034-4.771 3.925 0 1.811 1.05 3.118 3.213 3.996 2.01.81 2.362 1.275 2.362 1.953 0 .724-.525 1.123-1.47 1.123-1.154 0-2.49-.444-3.569-1.188l-.05-.033-.025.054-1.213 2.61-.019.04.037.024c1.374.908 3.238 1.496 4.747 1.496 1.51 0 2.762-.451 3.627-1.302a4.072 4.072 0 0 0 1.195-2.935c0-.935-.222-1.66-.698-2.28-.505-.67-1.351-1.25-2.573-1.77zM86.949.22H78.43v13.615H87v-2.957h-5.365V8.343h4.788V5.511h-4.788V3.2H87V.22zM56.544.22H48.03v13.615h8.57v-2.957h-5.365V8.343h4.785V5.511h-4.785V3.2h5.364V.22zM64.014 5.713c-1.646-.7-2.328-.99-2.328-1.844 0-.498.404-1.031 1.54-1.031.822 0 1.857.438 2.551.85l.049.028.024-.052 1.187-2.553.02-.042-.04-.025A7.412 7.412 0 0 0 63.225 0c-3.275 0-4.767 2.034-4.767 3.925 0 1.812 1.05 3.119 3.213 3.997 2.009.81 2.363 1.276 2.363 1.953 0 .725-.525 1.123-1.47 1.123-1.155 0-2.49-.444-3.57-1.187l-.05-.034-.025.055-1.21 2.607-.018.04.036.024c1.375.91 3.238 1.497 4.748 1.497 1.51 0 2.762-.451 3.627-1.302a4.073 4.073 0 0 0 1.194-2.936c0-.935-.221-1.66-.698-2.28-.511-.668-1.357-1.247-2.584-1.769z"/>
            <path fill-rule="nonzero" d="M33.835 1.507C32.78.593 31.25.11 29.403.11a34.816 34.816 0 0 0-3.706.222h-.045v13.503h3.185V9.796l.172.008c.303.015.566.026.92.026 3.355 0 5.439-1.858 5.439-4.851 0-1.402-.53-2.605-1.533-3.472zm-4.073 5.56c-.29 0-.49-.02-.925-.037V3.17c.38-.05.763-.074 1.146-.074 1.524 0 2.231.847 2.231 1.939-.003 1.31-.82 2.032-2.452 2.032zM44.102 8.679c1.351-.837 2.126-2.302 2.126-4.032 0-2.883-2.128-4.537-5.84-4.537a33.41 33.41 0 0 0-3.938.222l-.045.005v13.497H39.6V9.408l.23.01c.29.014.517.024.866.024.168 0 .328 0 .5-.015l2.258 4.38.015.028h3.633l-.045-.077-2.955-5.08zm-3.52-1.836c-.328 0-.657-.02-.983-.055V3.06c.397-.068.8-.1 1.202-.092 1.329 0 2.203.664 2.203 1.79 0 1.367-.946 2.086-2.422 2.086z"/>
            <path d="M7.164 13.835h.033l.013-.03 1.324-2.857.035-.073H3.213V.22H0v13.615h.051z"/>
            <path fill-rule="nonzero" d="M21.693 13.762L15.351.14l-.014-.03h-.487l-.014.03-6.342 13.623-.034.073h3.294l.014-.031.994-2.42h4.58l1 2.42.012.031h3.369l-.03-.073zM13.621 9.04l1.445-3.657 1.426 3.655-2.871.002z"/>
        </g>
    </g>
</svg>
