<svg xmlns="http://www.w3.org/2000/svg" xmlns:xlink="http://www.w3.org/1999/xlink" viewBox="0 0 24 24"><defs><path id="a" d="M23.72 9.818H12.28v4.637h6.585c-.614 2.945-3.181 4.636-6.586 4.636-4.019 0-7.256-3.164-7.256-7.091S8.26 4.91 12.28 4.91a7.2 7.2 0 0 1 4.52 1.58L20.372 3c-2.177-1.855-4.967-3-8.093-3C5.47 0 0 5.345 0 12s5.47 12 12.28 12C18.418 24 24 19.636 24 12c0-.71-.112-1.473-.28-2.182z"/><path id="c" d="M23.72 9.818H12.28v4.637h6.585c-.614 2.945-3.181 4.636-6.586 4.636-4.019 0-7.256-3.164-7.256-7.091S8.26 4.91 12.28 4.91a7.2 7.2 0 0 1 4.52 1.58L20.372 3c-2.177-1.855-4.967-3-8.093-3C5.47 0 0 5.345 0 12s5.47 12 12.28 12C18.418 24 24 19.636 24 12c0-.71-.112-1.473-.28-2.182z"/><path id="e" d="M23.72 9.818H12.28v4.637h6.585c-.614 2.945-3.181 4.636-6.586 4.636-4.019 0-7.256-3.164-7.256-7.091S8.26 4.91 12.28 4.91a7.2 7.2 0 0 1 4.52 1.58L20.372 3c-2.177-1.855-4.967-3-8.093-3C5.47 0 0 5.345 0 12s5.47 12 12.28 12C18.418 24 24 19.636 24 12c0-.71-.112-1.473-.28-2.182z"/><path id="g" d="M23.72 9.818H12.28v4.637h6.585c-.614 2.945-3.181 4.636-6.586 4.636-4.019 0-7.256-3.164-7.256-7.091S8.26 4.91 12.28 4.91a7.2 7.2 0 0 1 4.52 1.58L20.372 3c-2.177-1.855-4.967-3-8.093-3C5.47 0 0 5.345 0 12s5.47 12 12.28 12C18.418 24 24 19.636 24 12c0-.71-.112-1.473-.28-2.182z"/></defs><g fill="none" fill-rule="evenodd"><mask id="b" fill="#fff"><use xlink:href="#a"/></mask><path fill="#FBBC05" d="M-1.116 19.09V4.91L8.372 12z" mask="url(#b)"/><mask id="d" fill="#fff"><use xlink:href="#c"/></mask><path fill="#EA4335" d="M-1.116 4.91L8.372 12l3.907-3.327 13.395-2.128V-1.09h-26.79z" mask="url(#d)"/><g><mask id="f" fill="#fff"><use xlink:href="#e"/></mask><path fill="#34A853" d="M-1.116 19.09L15.628 6.546l4.41.546 5.636-8.182v26.182h-26.79z" mask="url(#f)"/></g><g><mask id="h" fill="#fff"><use xlink:href="#g"/></mask><path fill="#4285F4" d="M25.674 25.09L8.372 12 6.14 10.364l19.534-5.455z" mask="url(#h)"/></g></g></svg>